REM MD5 d4596cd06407db61a266fdcc464959c5
FILE "Tech PlayStation 97-8 (Japan).bin" BINARY
  TRACK 01 MODE2/2352
    INDEX 01 00:00:00
  TRACK 02 AUDIO
    INDEX 00 54:06:56
    INDEX 01 54:08:56
  TRACK 03 AUDIO
    INDEX 00 54:20:22
    INDEX 01 54:22:22
  TRACK 04 AUDIO
    INDEX 00 55:02:18
    INDEX 01 55:04:18
  TRACK 05 AUDIO
    INDEX 00 56:04:25
    INDEX 01 56:06:25
  TRACK 06 AUDIO
    INDEX 00 56:10:74
    INDEX 01 56:12:74
REM LEADOUT 60:38:09
